<?xml version="1.0" encoding="UTF-8"?>
<svg width="453" height="308" viewBox="0 0 453 308" xmlns="http://www.w3.org/2000/svg">
 <rect width="453" height="308" fill="#D9D9D9"/>
 <path d="m161.12 167c-0.293 0-0.533-0.093-0.72-0.28s-0.28-0.427-0.28-0.72v-21.44h-7.28c-0.267 0-0.493-0.093-0.68-0.28s-0.28-0.413-0.28-0.68v-3.6c0-0.293 0.093-0.533 0.28-0.72s0.413-0.28 0.68-0.28h20.96c0.293 0 0.533 0.093 0.72 0.28s0.28 0.427 0.28 0.72v3.6c0 0.267-0.093 0.493-0.28 0.68s-0.427 0.28-0.72 0.28h-7.24v21.44c0 0.293-0.093 0.533-0.28 0.72s-0.427 0.28-0.72 0.28h-4.44zm15.665 0c-0.267 0-0.494-0.093-0.68-0.28-0.187-0.187-0.28-0.427-0.28-0.72v-18.8c0-0.267 0.093-0.493 0.28-0.68 0.186-0.213 0.413-0.32 0.68-0.32h3.92c0.266 0 0.493 0.107 0.68 0.32 0.213 0.187 0.32 0.413 0.32 0.68v1.6c0.666-0.827 1.48-1.467 2.44-1.92 0.986-0.453 2.12-0.68 3.4-0.68h1.72c0.266 0 0.493 0.093 0.68 0.28 0.186 0.187 0.28 0.427 0.28 0.72v3.44c0 0.293-0.094 0.533-0.28 0.72-0.187 0.187-0.414 0.28-0.68 0.28h-3.52c-1.174 0-2.094 0.333-2.76 1-0.667 0.64-1 1.56-1 2.76v10.6c0 0.293-0.094 0.533-0.28 0.72-0.187 0.187-0.427 0.28-0.72 0.28h-4.2zm22.191 0.4c-1.413 0-2.68-0.267-3.8-0.8-1.12-0.56-2.013-1.307-2.68-2.24s-1-1.973-1-3.12c0-1.893 0.76-3.387 2.28-4.48 1.547-1.093 3.573-1.84 6.08-2.24l5.24-0.76v-0.72c0-1.04-0.24-1.84-0.72-2.4s-1.32-0.84-2.52-0.84c-0.88 0-1.587 0.173-2.12 0.52s-0.947 0.8-1.24 1.36c-0.213 0.347-0.52 0.52-0.92 0.52h-3.8c-0.293 0-0.52-0.08-0.68-0.24-0.16-0.187-0.227-0.4-0.2-0.64 0-0.453 0.173-0.987 0.52-1.6s0.88-1.213 1.6-1.8c0.72-0.613 1.64-1.12 2.76-1.52s2.493-0.6 4.12-0.6c1.68 0 3.12 0.2 4.32 0.6s2.16 0.96 2.88 1.68 1.253 1.56 1.6 2.52c0.347 0.933 0.52 1.947 0.52 3.04v12.36c0 0.293-0.093 0.533-0.28 0.72s-0.427 0.28-0.72 0.28h-3.92c-0.267 0-0.493-0.093-0.68-0.28s-0.28-0.427-0.28-0.72v-1.48c-0.347 0.507-0.813 0.987-1.4 1.44-0.587 0.427-1.293 0.773-2.12 1.04-0.8 0.267-1.747 0.4-2.84 0.4zm1.6-4.16c0.88 0 1.667-0.187 2.36-0.56s1.24-0.947 1.64-1.72 0.6-1.747 0.6-2.92v-0.68l-3.72 0.6c-1.44 0.24-2.493 0.6-3.16 1.08s-1 1.067-1 1.76c0 0.507 0.147 0.947 0.44 1.32 0.32 0.373 0.733 0.653 1.24 0.84s1.04 0.28 1.6 0.28zm16.443 3.76c-0.267 0-0.493-0.093-0.68-0.28s-0.28-0.427-0.28-0.72v-18.8c0-0.293 0.093-0.533 0.28-0.72s0.413-0.28 0.68-0.28h3.92c0.293 0 0.533 0.093 0.72 0.28s0.28 0.427 0.28 0.72v1.56c0.693-0.853 1.587-1.56 2.68-2.12s2.427-0.84 4-0.84 2.947 0.36 4.12 1.08c1.2 0.693 2.133 1.72 2.8 3.08 0.693 1.333 1.04 2.96 1.04 4.88v11.16c0 0.293-0.107 0.533-0.32 0.72-0.187 0.187-0.413 0.28-0.68 0.28h-4.24c-0.293 0-0.533-0.093-0.72-0.28s-0.28-0.427-0.28-0.72v-10.92c0-1.413-0.347-2.507-1.04-3.28-0.667-0.8-1.653-1.2-2.96-1.2-1.253 0-2.253 0.4-3 1.2-0.747 0.773-1.12 1.867-1.12 3.28v10.92c0 0.293-0.093 0.533-0.28 0.72s-0.413 0.28-0.68 0.28h-4.24zm32.553 0.4c-1.654 0-3.08-0.187-4.28-0.56-1.174-0.4-2.134-0.88-2.88-1.44-0.72-0.56-1.267-1.12-1.64-1.68-0.347-0.587-0.534-1.08-0.56-1.48-0.027-0.293 0.066-0.533 0.28-0.72 0.213-0.187 0.426-0.28 0.64-0.28h3.88c0.08 0 0.16 0.013 0.24 0.04s0.16 0.093 0.24 0.2c0.346 0.24 0.706 0.52 1.08 0.84 0.373 0.293 0.8 0.547 1.28 0.76 0.506 0.213 1.133 0.32 1.88 0.32 0.88 0 1.626-0.173 2.24-0.52 0.613-0.373 0.92-0.893 0.92-1.56 0-0.48-0.147-0.88-0.44-1.2-0.267-0.32-0.787-0.613-1.56-0.88-0.774-0.267-1.92-0.56-3.44-0.88-1.44-0.32-2.667-0.747-3.68-1.28-1.014-0.533-1.774-1.2-2.28-2-0.507-0.827-0.76-1.813-0.76-2.96 0-1.04 0.32-2.04 0.96-3 0.666-0.96 1.64-1.747 2.92-2.36 1.28-0.64 2.88-0.96 4.8-0.96 1.466 0 2.746 0.187 3.84 0.56 1.12 0.347 2.053 0.8 2.8 1.36 0.746 0.533 1.306 1.093 1.68 1.68 0.4 0.56 0.613 1.053 0.64 1.48 0.026 0.267-0.054 0.493-0.24 0.68-0.187 0.187-0.4 0.28-0.64 0.28h-3.56c-0.134 0-0.254-0.013-0.36-0.04-0.107-0.053-0.2-0.12-0.28-0.2-0.32-0.213-0.654-0.453-1-0.72-0.32-0.293-0.707-0.547-1.16-0.76-0.454-0.213-1.04-0.32-1.76-0.32-0.88 0-1.56 0.2-2.04 0.6-0.454 0.373-0.68 0.853-0.68 1.44 0 0.373 0.12 0.72 0.36 1.04s0.733 0.613 1.48 0.88c0.746 0.267 1.88 0.547 3.4 0.84 1.813 0.32 3.253 0.8 4.32 1.44 1.066 0.64 1.826 1.387 2.28 2.24 0.48 0.827 0.72 1.72 0.72 2.68 0 1.253-0.374 2.373-1.12 3.36-0.747 0.96-1.84 1.72-3.28 2.28-1.414 0.533-3.16 0.8-5.24 0.8zm14.439-0.4c-0.266 0-0.493-0.093-0.68-0.28-0.186-0.187-0.28-0.427-0.28-0.72v-18.8c0-0.293 0.094-0.533 0.28-0.72 0.187-0.187 0.414-0.28 0.68-0.28h4c0.294 0 0.534 0.093 0.72 0.28 0.187 0.187 0.28 0.427 0.28 0.72v18.8c0 0.293-0.093 0.533-0.28 0.72-0.186 0.187-0.426 0.28-0.72 0.28h-4zm-0.12-24c-0.266 0-0.493-0.093-0.68-0.28-0.186-0.187-0.28-0.427-0.28-0.72v-3.2c0-0.293 0.094-0.533 0.28-0.72 0.187-0.213 0.414-0.32 0.68-0.32h4.2c0.294 0 0.534 0.107 0.72 0.32 0.214 0.187 0.32 0.427 0.32 0.72v3.2c0 0.293-0.106 0.533-0.32 0.72-0.186 0.187-0.426 0.28-0.72 0.28h-4.2zm20.137 24c-1.654 0-3.067-0.267-4.24-0.8-1.174-0.56-2.067-1.413-2.68-2.56-0.587-1.147-0.88-2.587-0.88-4.32v-8.4h-3.12c-0.294 0-0.534-0.093-0.72-0.28-0.187-0.187-0.28-0.427-0.28-0.72v-2.72c0-0.293 0.093-0.533 0.28-0.72 0.186-0.187 0.426-0.28 0.72-0.28h3.12v-6.6c0-0.293 0.093-0.533 0.28-0.72 0.213-0.187 0.453-0.28 0.72-0.28h3.92c0.293 0 0.533 0.093 0.72 0.28 0.186 0.187 0.28 0.427 0.28 0.72v6.6h5c0.266 0 0.493 0.093 0.68 0.28 0.186 0.187 0.28 0.427 0.28 0.72v2.72c0 0.293-0.094 0.533-0.28 0.72-0.187 0.187-0.414 0.28-0.68 0.28h-5v7.92c0 1.013 0.173 1.813 0.52 2.4 0.373 0.56 1.013 0.84 1.92 0.84h2.92c0.266 0 0.493 0.093 0.68 0.28 0.186 0.187 0.28 0.413 0.28 0.68v2.96c0 0.293-0.094 0.533-0.28 0.72-0.187 0.187-0.414 0.28-0.68 0.28h-3.48zm9.37 0c-0.294 0-0.534-0.093-0.72-0.28-0.187-0.187-0.28-0.427-0.28-0.72v-26c0-0.293 0.093-0.533 0.28-0.72 0.186-0.187 0.426-0.28 0.72-0.28h17.84c0.293 0 0.533 0.093 0.72 0.28 0.186 0.187 0.28 0.427 0.28 0.72v3.4c0 0.293-0.094 0.533-0.28 0.72-0.187 0.187-0.427 0.28-0.72 0.28h-12.6v6.76h11.8c0.293 0 0.533 0.093 0.72 0.28 0.186 0.187 0.28 0.427 0.28 0.72v3.4c0 0.267-0.094 0.493-0.28 0.68-0.187 0.187-0.427 0.28-0.72 0.28h-11.8v9.48c0 0.293-0.094 0.533-0.28 0.72-0.187 0.187-0.427 0.28-0.72 0.28h-4.24zm23.935 0c-0.294 0-0.534-0.093-0.72-0.28-0.187-0.187-0.28-0.427-0.28-0.72v-26.4c0-0.293 0.093-0.533 0.28-0.72 0.186-0.187 0.426-0.28 0.72-0.28h4c0.266 0 0.493 0.093 0.68 0.28 0.186 0.187 0.28 0.427 0.28 0.72v26.4c0 0.293-0.094 0.533-0.28 0.72-0.187 0.187-0.414 0.28-0.68 0.28h-4zm19.535 0.4c-2.213 0-4.067-0.36-5.56-1.08-1.493-0.747-2.64-1.8-3.44-3.16-0.773-1.36-1.2-2.947-1.28-4.76-0.027-0.533-0.04-1.133-0.04-1.8 0-0.693 0.013-1.293 0.04-1.8 0.08-1.84 0.533-3.427 1.36-4.76 0.827-1.36 1.987-2.4 3.48-3.12 1.493-0.747 3.307-1.12 5.44-1.12 2.107 0 3.907 0.373 5.4 1.12 1.493 0.72 2.653 1.76 3.48 3.12 0.827 1.333 1.28 2.92 1.36 4.76 0.053 0.507 0.08 1.107 0.08 1.8 0 0.667-0.027 1.267-0.08 1.8-0.08 1.813-0.52 3.4-1.32 4.76-0.773 1.36-1.907 2.413-3.4 3.16-1.493 0.72-3.333 1.08-5.52 1.08zm0-4.4c1.307 0 2.293-0.4 2.96-1.2 0.667-0.827 1.027-2.027 1.08-3.6 0.027-0.4 0.04-0.933 0.04-1.6s-0.013-1.2-0.04-1.6c-0.053-1.547-0.413-2.733-1.08-3.56s-1.653-1.24-2.96-1.24-2.307 0.413-3 1.24c-0.667 0.827-1.027 2.013-1.08 3.56-0.027 0.4-0.04 0.933-0.04 1.6s0.013 1.2 0.04 1.6c0.053 1.573 0.413 2.773 1.08 3.6 0.693 0.8 1.693 1.2 3 1.2zm19.638 4c-0.374 0-0.667-0.093-0.88-0.28-0.187-0.187-0.334-0.427-0.44-0.72l-5.72-18.52c-0.054-0.133-0.08-0.267-0.08-0.4 0-0.24 0.08-0.44 0.24-0.6 0.186-0.187 0.4-0.28 0.64-0.28h3.52c0.346 0 0.613 0.093 0.8 0.28 0.186 0.187 0.306 0.36 0.36 0.52l3.64 12.36 3.88-12.28c0.053-0.187 0.173-0.373 0.36-0.56 0.213-0.213 0.506-0.32 0.88-0.32h2.28c0.373 0 0.653 0.107 0.84 0.32 0.213 0.187 0.346 0.373 0.4 0.56l3.88 12.28 3.64-12.36c0.026-0.16 0.133-0.333 0.32-0.52 0.213-0.187 0.48-0.28 0.8-0.28h3.52c0.24 0 0.44 0.093 0.6 0.28 0.186 0.16 0.28 0.36 0.28 0.6 0 0.133-0.014 0.267-0.04 0.4l-5.76 18.52c-0.08 0.293-0.227 0.533-0.44 0.72-0.187 0.187-0.467 0.28-0.84 0.28h-3.08c-0.374 0-0.667-0.093-0.88-0.28-0.214-0.187-0.374-0.427-0.48-0.72l-3.88-11.84-3.96 11.84c-0.08 0.293-0.227 0.533-0.44 0.72-0.214 0.187-0.507 0.28-0.88 0.28h-3.08z" fill="#565656"/>
 <rect transform="rotate(-30 67 130.76)" x="67" y="130.76" width="22.011" height="22.011" fill="#2F2F2F"/>
 <rect x="76.295" y="153.5" width="22.5" height="22.5" fill="#2F2F2F"/>
 <rect x="107.8" y="124.25" width="22.5" height="22.5" fill="#2F2F2F"/>
 <rect x="107.8" y="153.5" width="22.5" height="22.5" fill="#2F2F2F"/>
</svg>
